<svg width="468" height="512" viewBox="0 0 468 512" fill="none" xmlns="http://www.w3.org/2000/svg">
<path d="M2 43.0689V-48H136V43.0689M2 43.0689C54.3303 23.1174 83.6723 21.2371 136 43.0689M2 43.0689V134.981M136 43.0689V134.981M136 134.981C99.0519 112.368 32.117 117.762 2 134.981M136 134.981V220.991M2 134.981V220.991M2 220.991V307H136V220.991M2 220.991C54.3935 193.235 83.6192 192.235 136 220.991" stroke="black" stroke-width="4" stroke-linecap="round"/>
<path d="M307 411.069V320H441V411.069M307 411.069C359.33 391.117 388.672 389.237 441 411.069M307 411.069V502.981M441 411.069V502.981M441 502.981C404.052 480.368 337.117 485.762 307 502.981M441 502.981V588.991M307 502.981V588.991M307 588.991V675H441V588.991M307 588.991C359.394 561.235 388.619 560.235 441 588.991" stroke="black" stroke-width="4" stroke-linecap="round"/>
<path d="M425.5 184C429.137 193.889 432.005 199.489 439 209.5L434.606 214C410.011 235.529 398.183 248.955 377.177 272.799L377 273C354.663 248.648 342.082 235.202 319 214C325.897 202.043 329.172 195.439 333 184H364.5C376.414 184.699 383.089 184.412 395 184H425.5Z" fill="#B0E3FF"/>
<path d="M377 273C354.663 248.648 342.082 235.202 319 214M377 273C369.421 250.409 364.6 237.658 350 214L364.5 184M377 273C385.589 248.451 391.647 234.588 407 209.5L395 184M377 273C398.116 249.031 409.942 235.589 434.606 214M319 214C325.897 202.043 329.172 195.439 333 184H364.5M319 214C364.169 211.203 389.437 211.352 434.606 214M364.5 184C376.414 184.699 383.089 184.412 395 184M395 184H425.5C429.137 193.889 432.005 199.489 439 209.5L434.606 214" stroke="black" stroke-width="4" stroke-linecap="round"/>
<path d="M316 171L298 156" stroke="black" stroke-width="4" stroke-linecap="round"/>
<path d="M348 156.5V129" stroke="black" stroke-width="4" stroke-linecap="round"/>
<path d="M406 156V127" stroke="black" stroke-width="4" stroke-linecap="round"/>
<path d="M445 167.5L466 149.5" stroke="black" stroke-width="4" stroke-linecap="round"/>
<path d="M120.5 342C80.4649 344.084 58.0357 343.863 18 342C20.956 389.565 21.1536 416.463 18 465C58.1367 460.615 80.5545 463.042 120.5 471.5C118.959 421.336 117.931 393.254 120.5 342Z" fill="#E4E4E4" stroke="black" stroke-width="4" stroke-linecap="round"/>
<path d="M35.5 362.5C39.0679 358.638 42.7531 357.164 48 357.5C52.5324 357.79 54.0829 361.444 58.5 362.5C67.6253 364.683 72.6426 358.189 82 357.5C87.0631 357.127 89.9369 357.127 95 357.5" stroke="black" stroke-width="4" stroke-linecap="round"/>
<path d="M35 394.032C36.7989 389.986 38.657 388.441 41.3025 388.793C43.5878 389.097 44.3695 392.925 46.5966 394.032C51.1977 396.319 53.7274 389.515 58.4454 388.793C60.9982 388.402 62.4472 388.402 65 388.793" stroke="black" stroke-width="4" stroke-linecap="round"/>
<path d="M36 416.032C37.7989 411.986 39.657 410.441 42.3025 410.793C44.5878 411.097 45.3695 414.925 47.5966 416.032C52.1977 418.319 54.7274 411.515 59.4454 410.793C61.9982 410.402 63.4472 410.402 66 410.793" stroke="black" stroke-width="4" stroke-linecap="round"/>
<path d="M36 443.032C39.8977 438.986 43.9236 437.441 49.6555 437.793C54.6068 438.097 56.3007 441.925 61.1261 443.032C71.0949 445.319 76.5759 438.515 86.7983 437.793C92.3294 437.402 95.4689 437.402 101 437.793" stroke="black" stroke-width="4" stroke-linecap="round"/>
<path d="M70 317.5V333M70 317.5L60 324.5M70 317.5L80.5 324.5" stroke="black" stroke-width="4" stroke-linecap="round"/>
<path d="M379 292V307.5M379 292L369 299M379 292L389.5 299" stroke="black" stroke-width="4" stroke-linecap="round"/>
</svg>
