<svg width="207" height="285" viewBox="0 0 207 285" fill="none" xmlns="http://www.w3.org/2000/svg">
<g clip-path="url(#clip0_691_2460)">
<path d="M58.6908 36.5113C58.6908 36.5113 78.9133 0.300358 100.623 0.00533215C110.017 -0.122326 115.496 2.04299 123.809 6.41854C136.108 12.8914 140.12 20.966 148.476 32.0714C158.016 44.751 161.909 53.0266 168.209 67.5907C175.249 83.867 177.382 93.761 181.528 111.003C185.69 128.31 194.795 138.925 189.422 155.896C185.361 168.718 198.301 179.082 168.209 183.028C138.116 186.975 123.809 183.028 97.17 183.028C70.5305 183.028 55.3632 195.388 34.0246 183.028C21.5204 175.786 13.3037 169.647 8.86511 155.896C4.06895 141.036 10.9016 131.418 15.2783 116.43C21.2196 96.083 28.4342 85.9902 38.9578 67.5907C46.0957 55.1107 58.6908 36.5113 58.6908 36.5113Z" fill="white" stroke="black" stroke-width="5"/>
<path d="M42.1001 97.1552C43.9715 95.2322 46.0721 94.3198 48.7747 94.8932C52.5091 95.6856 54.3726 99.4103 53.5804 102.936C52.795 106.431 49.5898 109.003 45.8378 108.465C43.4052 108.117 41.8889 107.008 40.7651 104.947C39.2701 102.205 39.8885 99.4278 42.1001 97.1552Z" fill="white" stroke="black" stroke-width="5"/>
<path d="M144.709 100.115C146.581 98.1922 148.681 97.2797 151.384 97.8532C155.118 98.6455 156.982 102.37 156.19 105.896C155.404 109.391 152.199 111.963 148.447 111.425C146.015 111.076 144.498 109.967 143.375 107.907C141.879 105.165 142.498 102.388 144.709 100.115Z" fill="white" stroke="black" stroke-width="5"/>
<path d="M15.2793 161.322L46.852 168.229" stroke="black" stroke-width="5" stroke-linecap="round"/>
<path d="M72.1568 172.249L104.076 172.249L122.329 172.249L152.915 169.215L184.488 160.335L189.421 144.055" stroke="black" stroke-width="5" stroke-linecap="round"/>
<path d="M16.2664 202.762C18.1174 194.671 24.1595 183.029 24.1595 183.029L52.279 185.989L91.2515 188.949L118.384 185.989L150.45 183.029L178.57 179.082C178.57 179.082 185.128 188.502 187.45 195.362C191.773 208.136 176.325 222.271 187.45 229.894C192.345 233.249 197.884 229.327 202.249 233.348C208.768 239.351 207.996 249.294 202.249 256.041C197.098 262.087 190.206 262.965 182.516 260.974C176.137 259.322 169.197 250.614 169.197 250.614C169.197 250.614 166.442 263.167 160.81 268.374C154.815 273.916 149.076 276.918 141.077 275.28C131.435 273.306 131.155 263.554 124.798 256.041C126.424 269.664 116.713 282.023 103.091 283.667C97.1373 284.385 92.2854 284.925 88.0225 280.707C82.5448 275.286 86.0447 268.422 88.0225 260.974C89.6932 254.682 94.7046 252.608 95.6914 246.174C96.1588 243.127 95.894 241.357 95.6914 238.281C95.0045 227.847 88.0225 212.628 88.0225 212.628C88.0225 212.628 90.0006 239.626 82.3717 254.067C76.2618 265.633 71.8805 275.087 59.1855 278.24C50.5118 280.394 41.8636 282.423 36.4926 275.28C31.9773 269.275 32.9788 262.682 36.4926 256.041C39.2729 250.786 44.628 251.01 48.0857 246.174C56.3774 234.577 48.0857 209.668 48.0857 209.668L43.8925 233.348C43.8925 233.348 29.5347 251.655 16.2664 254.067C10.959 255.032 6.51295 257.619 2.4533 254.067C-2.18631 250.008 0.896517 244.246 2.4533 238.281C3.82414 233.028 3.44162 225.746 8.8665 225.948C12.9505 226.1 12.6347 231.473 16.2664 233.348C26.8806 238.826 13.6025 214.405 16.2664 202.762Z" fill="white"/>
<path d="M52.279 185.989L24.1595 183.029C24.1595 183.029 18.1174 194.671 16.2664 202.762C13.6025 214.405 26.8806 238.826 16.2664 233.348C12.6347 231.473 12.9505 226.1 8.8665 225.948C3.44162 225.746 3.82414 233.028 2.4533 238.281C0.896517 244.246 -2.1863 250.008 2.4533 254.067C6.51295 257.619 10.959 255.032 16.2664 254.067C29.5347 251.655 43.8925 233.348 43.8925 233.348L48.0857 209.668M52.279 185.989L48.0857 209.668M52.279 185.989L91.2515 188.949M48.0857 209.668C48.0857 209.668 56.3774 234.577 48.0857 246.174C44.628 251.01 39.2729 250.786 36.4926 256.041C32.9788 262.682 31.9773 269.275 36.4926 275.28C41.8636 282.423 50.5118 280.394 59.1855 278.24C71.8805 275.087 76.2618 265.633 82.3717 254.067C90.0006 239.626 88.0225 212.628 88.0225 212.628M91.2515 188.949L88.0225 212.628M91.2515 188.949L118.384 185.989M88.0225 212.628C88.0225 212.628 95.0045 227.847 95.6914 238.281C95.894 241.357 96.1588 243.127 95.6914 246.174C94.7046 252.608 89.6932 254.682 88.0225 260.974C86.0447 268.422 82.5448 275.286 88.0225 280.707C92.2854 284.925 97.1373 284.385 103.091 283.667C116.713 282.023 126.424 269.664 124.798 256.041M124.798 256.041C126.339 244.289 128.744 225.948 128.744 225.948L118.384 185.989M124.798 256.041C131.155 263.554 131.435 273.306 141.077 275.28C149.076 276.918 154.815 273.916 160.81 268.374C166.442 263.167 169.197 250.614 169.197 250.614M118.384 185.989L150.45 183.029M169.197 250.614C169.197 250.614 162.804 247.1 160.81 243.214C157.053 235.891 166.325 231.208 166.73 222.988C167.217 213.094 165.066 207.267 160.81 198.322C157.711 191.808 150.45 183.029 150.45 183.029M169.197 250.614C169.197 250.614 176.137 259.322 182.516 260.974C190.206 262.965 197.098 262.087 202.249 256.041C207.996 249.294 208.768 239.351 202.249 233.348C197.884 229.327 192.345 233.249 187.45 229.894C176.325 222.271 191.773 208.136 187.45 195.362C185.128 188.502 178.57 179.082 178.57 179.082L150.45 183.029" stroke="black" stroke-width="5" stroke-linecap="round"/>
<path d="M28.5991 201.282L27.1191 219.041" stroke="black" stroke-width="5" stroke-linecap="round"/>
<path d="M25.6387 232.854L26.6253 231.375" stroke="black" stroke-width="5" stroke-linecap="round"/>
<path d="M62.6382 216.081L61.1582 233.841" stroke="black" stroke-width="5" stroke-linecap="round"/>
<path d="M114.753 199.308L117.89 210.894" stroke="black" stroke-width="5" stroke-linecap="round"/>
<path d="M153.406 209.175L153.078 232.078" stroke="black" stroke-width="5" stroke-linecap="round"/>
<path d="M178.072 206.215L177.098 220.161" stroke="black" stroke-width="5" stroke-linecap="round"/>
<path d="M62.6387 247.16L63.6253 245.68" stroke="black" stroke-width="5" stroke-linecap="round"/>
<path d="M120.85 228.414L121.836 226.934" stroke="black" stroke-width="5" stroke-linecap="round"/>
<path d="M173.143 192.895L174.129 191.415" stroke="black" stroke-width="5" stroke-linecap="round"/>
<path d="M108.447 138.721C104.133 141.158 99.7205 142.729 96.0516 142.565C94.8336 142.511 93.5088 142.26 92.1177 141.848C77.9657 137.66 56.9546 116.846 71.7678 117.523C77.3182 117.776 83.3902 117.751 89.5303 117.616C95.5298 117.484 101.594 117.247 107.301 117.063C112.872 116.884 118.102 116.755 122.597 116.825C132.894 116.984 121.096 131.575 108.447 138.721Z" fill="white"/>
<path d="M108.447 138.721C104.133 141.158 99.7205 142.729 96.0516 142.565C94.8336 142.511 93.5088 142.26 92.1177 141.848M108.447 138.721C121.096 131.575 132.894 116.984 122.597 116.825C118.102 116.755 112.872 116.884 107.301 117.063M108.447 138.721L107.301 117.063M107.301 117.063C101.594 117.247 95.5298 117.484 89.5303 117.616M92.1177 141.848C77.9657 137.66 56.9546 116.846 71.7678 117.523C77.3182 117.776 83.3902 117.751 89.5303 117.616M92.1177 141.848L89.5303 117.616" stroke="black" stroke-width="5" stroke-linecap="round"/>
<path d="M55.2383 56.7373L76.4512 35.5244" stroke="black" stroke-width="5" stroke-linecap="round"/>
<path d="M82.3711 28.6181L85.331 25.6582" stroke="black" stroke-width="5" stroke-linecap="round"/>
</g>
<defs>
<clipPath id="clip0_691_2460">
<rect width="206.853" height="284.159" fill="white"/>
</clipPath>
</defs>
</svg>
