<svg width="24" height="18" viewBox="0 0 24 18" fill="none" xmlns="http://www.w3.org/2000/svg">
<path d="M23.1338 2.87736L9.00045 17.0106C8.87528 17.1369 8.70488 17.2078 8.52712 17.2078C8.34936 17.2078 8.17896 17.1369 8.05379 17.0106L0.867122 9.82397C0.740909 9.69891 0.669922 9.52851 0.669922 9.35064C0.669922 9.17291 0.740909 9.00251 0.867122 8.87731L1.80045 7.94397C1.92563 7.81784 2.09603 7.74677 2.27379 7.74677C2.45155 7.74677 2.62195 7.81784 2.74712 7.94397L8.52046 13.7173L21.2538 0.984026C21.5175 0.728306 21.9367 0.728306 22.2005 0.984026L23.1338 1.93069C23.2601 2.05587 23.331 2.22627 23.331 2.40403C23.331 2.58179 23.2601 2.75217 23.1338 2.87736Z" fill="black"/>
</svg>
